# xmcd CD database file
#
# Track frame offsets:
#	150
#	20695
#	33625
#	47540
#	66905
#	71850
#	94030
#	109412
#	125185
#	148555
#	174107
#	189735
#	208025
#
# Disc length: 3122 seconds
#
# Revision: 5
# Processed by: cddbd v1.5.2PL0 Copyright (c) Steve Scherf et al.
# Submitted via: CDex 1.70beta2
#
DISCID=c70c300d
DTITLE=pre-school - First Heaven
DYEAR=1999
DGENRE=Rock
TTITLE0=his first heaven
TTITLE1=MEMBERS ONLY
TTITLE2=ROCK AND ROLL HIGH SCHOOL
TTITLE3=Maybe Best Friend
TTITLE4=Mr.S
TTITLE5=SO SUDDENLY
TTITLE6=Marathon
TTITLE7=Sister-in-Law
TTITLE8=WHO ARE THEY
TTITLE9=Please Forgive Us
TTITLE10=Black and White
TTITLE11=Mother!
TTITLE12=YOUR HORSES
EXTD=YEAR: 1999
EXTT0=
EXTT1=
EXTT2=
EXTT3=
EXTT4=
EXTT5=
EXTT6=
EXTT7=
EXTT8=
EXTT9=
EXTT10=
EXTT11=
EXTT12=
PLAYORDER=
